<svg xmlns="http://www.w3.org/2000/svg" width="100" height="58.593" viewBox="0 0 100 58.593"><defs><style>.a,.c{fill:#ffed00;}.a,.b{fill-rule:evenodd;}.b,.d{fill:#e30613;}</style></defs><g transform="translate(-634.509 -193.673)"><path class="a" d="M7.214,66.175a7.257,7.257,0,0,1-4.832-7.023,10.661,10.661,0,0,1,4.51-8.441l.9-.58-.064-3.479-.258-3.222L5.6,43.044a10.6,10.6,0,0,1-3.093-.387A5.706,5.706,0,0,1,0,40.08a10.56,10.56,0,0,1,.064-4.252A20.154,20.154,0,0,1,9.6,25.39a23.823,23.823,0,0,1,2.964-1.16c4.446-1.289,8.569-.515,12.951,1.933,1.289.709,1.353.644,1.675.387a7.824,7.824,0,0,1,1.611-.9,5.354,5.354,0,0,1,2.964-.451,9.136,9.136,0,0,1,2.835.387c1.1.387,1.031.451,1.417.064a8.363,8.363,0,0,1,1.8-.966,5.866,5.866,0,0,1,3.415-.709c1.611,0,2.126.064,2.835-.258a3.6,3.6,0,0,1,2.062-.258c.644.064,3.222.064,5.606.193,3.866.193,4.575.258,6.379-.064a21.873,21.873,0,0,1,3.157-.258,9.69,9.69,0,0,1,6.508,2.448l.838.58,1.1-.258a11.288,11.288,0,0,1,6.379-.064,2.571,2.571,0,0,0,1.353.258,11.58,11.58,0,0,1,4.381.9,6.123,6.123,0,0,1,2.448,2.835l.322.451.58-.322a2.765,2.765,0,0,1,1.546-.387c.9.064.9.451-.193-1.869a6.586,6.586,0,0,1-.644-1.8,17.224,17.224,0,0,1,2.771.515,6.012,6.012,0,0,0,2.448.193.4.4,0,0,0,.193-.322,6.3,6.3,0,0,1,1.482-3.093c1.869-1.74,4.381-1.353,6.057.709a3.142,3.142,0,0,1,.966,2.126c.064,1.224-.193,1.482-.838,2.706a9.224,9.224,0,0,1-2,2.642c-.9.838-1.031,1.289-.838,1.353.515.322.838,1.933.9,3.093a12.265,12.265,0,0,1-2.513,6.314l-1.353,1.8.129,2.835a8.135,8.135,0,0,1-1.031,4.188,10.239,10.239,0,0,1-1.482,2.32,9.333,9.333,0,0,1-4.832,2.577,8.373,8.373,0,0,1-7.087-2.835l-.9-.773-.322.966c-.129.838-.451,3.157-.58,5.026-.258,3.866-.709,4.961-2.191,6.572-2.126,2.255-5.026,2-8.569-.9a26.4,26.4,0,0,1-4.575-5.09c-.387-.58-.193-.515-.322-.129-.258.709-.258.709.387,1.482,1.289,1.482,1.546,3.093.838,3.866-1.031,1.031-1.611,1.353-4.9,1.353a17.674,17.674,0,0,1-5.155-.709c-2.384-.644-4.059-.58-8.183,0-4.961.773-8.441.451-9.729-.966-.322-.387-.515-.387-1.031.258-.644.709-3.286,1.611-5.67,2a25.247,25.247,0,0,1-7.023-.064c-1.482-.387-2.706-1.353-2.9-2.448v-.9l-1.482,1.031a16.543,16.543,0,0,1-4.9,2.448,16.6,16.6,0,0,1-4.446-.064ZM26.35,64.049C30.989,63.6,31.7,63.4,30.989,62.7a3.036,3.036,0,0,0-1.417-.451,3.809,3.809,0,0,1-1.16-.258A14.213,14.213,0,0,1,29.443,59.8a14.994,14.994,0,0,0,1.1-2.191c0-.387-.966-.773-2-.773-1.1,0-1.1,0-2.255,1.353-2.513,2.9-3.028,3.35-4.188,3.93-1.8.838-2.255,1.482-1.611,2.126.322.258.773.258,5.863-.193Zm46.326-.258c1.031-.515,1.289-1.16,1.869-6.572a33.706,33.706,0,0,1,.838-5.67A2.848,2.848,0,0,1,77.9,50.067c.966,0,1.1.064,1.611.709,1.675,2.255,3.544,3.544,5.283,3.544,2.835,0,5.863-3.286,5.863-6.314a10.509,10.509,0,0,0-1.8-4.768,13.753,13.753,0,0,1-2.126-4.768,2.933,2.933,0,0,1,.322-1.289c.258-.515.451-.58,1.1-.58,1.611,0,2.513,1.482,2.577,4.124.064,1.933,0,1.869.515,1.869.709,0,1.74-2.062,2.706-5.026.387-1.289.387-1.482.129-1.74s-.387-.258-.838-.064c-.966.451-1.482.322-2.191-.644a4.341,4.341,0,0,0-5.606-1.353,5.748,5.748,0,0,0-3.222,5.283c0,1.74.58,3.157,2.448,5.863,1.611,2.32,1.869,2.9,1.933,3.995.064,2-1.353,2.9-3.222,2.126a3.233,3.233,0,0,1-2-2.513A2.643,2.643,0,0,0,79.7,46.33a17.422,17.422,0,0,0-3.608-.064c-3.028.129-3.093.129-3.673.709a1.838,1.838,0,0,0-.58,1.1c0,.451-.966,7.732-1.1,8.054,0,.064-1.611-1.8-3.608-4.252-3.093-3.866-3.608-4.446-4.317-4.639a83.467,83.467,0,0,0-8.956-.515.75.75,0,0,0-.709.9c.064.193.515.451.9.644,1.417.515,1.417.709.644,6.508-.387,2.771-.773,5.412-.9,5.8-.258.773-.773,1.1-1.869,1.1s-1.546.773-.773,1.224a29.142,29.142,0,0,0,4.317.58c3.608.322,3.995.322,4.252,0,.258-.258.258-.387.064-.773a.817.817,0,0,0-.515-.451,1.96,1.96,0,0,1-.709-.387l-.387-.451.451-3.093c.773-5.219.9-5.67,1.16-5.606a21.679,21.679,0,0,1,1.869,2.448c.9,1.289,2.062,2.964,2.577,3.608.515.709,1.031,1.353,1.1,1.417a20.53,20.53,0,0,0,3.286,3.544,4.317,4.317,0,0,0,4.059.064Zm-61.468.193c2.771-.515,4.575-1.74,5.541-3.866.451-.966.515-1.482.58-3.737.129-3.479-.129-8.054-.451-8.183-2.706-.644-3.415-1.675-2.384-3.35a4.02,4.02,0,0,1,2.32-1.546c.258,0,.322-.387.322-2.513,0-1.417.064-3.673.129-5.026l.129-2.448H18.1c1.869.064,2.771.838,3.35,2.706,1.224,3.866-.064,6.121-4.381,7.732-2.448.9-3.157,2.448-1.675,3.415a6.441,6.441,0,0,0,3.8.58,15.6,15.6,0,0,0,5.541-2.964c2.642-2.255,3.866-4.51,4.059-7.41.129-2.062-.322-3.479-1.74-5.734C24.61,27.774,21.066,26.356,15.719,27c-4.639.58-8.376,2.384-10.824,5.348s-3.028,6.508-1.353,8.5a1.551,1.551,0,0,0,1.546.644,9.022,9.022,0,0,0,2.384-.451c1.224-.387,1.353-.515,1.74-1.289q.966-1.933-.193-2.513A1.356,1.356,0,0,1,8.18,35.7a4.405,4.405,0,0,1,1.8-1.8c.258,0,.322,1.675.322,11.984,0,7.216-.064,11.984-.193,11.984s-.387-.258-.644-.515c-.322-.451-.451-.838-.451-2.191,0-.9-.064-1.611-.193-1.611A2.028,2.028,0,0,0,8.051,54c-2.513,1.933-3.737,5.477-2.835,7.861.9,2.126,2.448,2.706,5.992,2.126Zm35.824-1.1c.773-.064,1.16-.193,1.289-.515.193-.387.129-.515-1.611-2A2.706,2.706,0,0,1,46,59.087c-.58-2.255-1.482-6.379-1.8-8.634l-.387-2.513.451-.322a.8.8,0,0,0,.193-1.289c-.322-.322-12.178-.387-12.757-.064-.644.387-.515.966.451,1.417.58.258.838.58.838.838a8.832,8.832,0,0,1-1.417,2.32A14.5,14.5,0,0,0,30.151,52.9a3.644,3.644,0,0,0,1.289.387,6.407,6.407,0,0,1,1.611.451c.258.129.644-.258,1.869-1.869,1.224-1.675,1.546-2,1.675-1.675.258.773,1.289,5.477,1.224,5.541a10.671,10.671,0,0,1-2.126-.644c-6.443-2.255-11.533-2.126-14.111.258-1.031.966-.9,1.482.709,2.513l1.353.9.773-.838c1.1-1.16,1.933-1.482,3.995-1.482a12.058,12.058,0,0,1,5.412,1.224c1.611.644,4.51,2.577,4.639,3.028.064.129-.258.322-.709.451q-1.933.58-1.74,1.546l.129.515,4.9-.129c2.706-.064,5.412-.129,5.992-.193Zm-13.6-2.9c-.193-.515-.838-.58-.9-.451s-.129.258.193.644c.644.515.773.387.709-.193Zm-13.08-.709c.064-.129.064-.258-.193-.451-.515-.258-.451-.258-.709.58l-.258.644.58-.322a.89.89,0,0,0,.58-.451Zm31.249-1.546c.064-.129.322-2,.515-4.124l.322-3.866-.773-.9c-.966-1.16-1.482-2.191-1.289-3.157l.064-.58-1.031-.064a15.193,15.193,0,0,1-1.869-.064h-.515l-.064.515a12.883,12.883,0,0,1-.193,1.933c-.193,1.289-.322,2.835.773,7.087.644,2.448.773,2.835,1.482,3.544l.773.773.773-.451a2.534,2.534,0,0,0,1.031-.644ZM22.291,51.162a6.29,6.29,0,0,1,3.8-.838l2.062.193.773-1.16.709-1.031-.515-.515a2.069,2.069,0,0,1-.709-1.546c-.129-1.8-.129-1.675-3.608.966-2.32,1.74-2.9,2.062-3.415,2.191-.387.064-.966.129-1.289.193-.58.129-.644.258-.644.9a5.367,5.367,0,0,0,.193,1.418l.129.515.451-.193a13.827,13.827,0,0,1,2.062-1.1Zm46.906-3.8.129-.838H68.1a5.311,5.311,0,0,0-1.353.064s.322.451.966,1.224c1.289,1.417,1.031,1.482,1.482-.451ZM77.96,44.59c.644-.644.709-1.1,1.482-7.6l.58-4.832.773-.515A2.146,2.146,0,0,0,81.568,31c0-.515-.9-.9-2.771-1.1-1.675-.193-2.062-.193-2.32.064s-.258.387.322,1.1c.322.451.58.966.515,1.1-.064.193-.129.515-.193.773s-.193,1.74-.322,3.415c-.258,4.124-.709,5.155-1.933,5.155a3.2,3.2,0,0,1-2.642-1.8c-.966-2-.064-5.283,1.933-7.281,1.546-1.546,1.74-2.642.58-3.35A4.762,4.762,0,0,0,71.323,29a2.492,2.492,0,0,0-1.546,2.062,1.267,1.267,0,0,0,2.513.322c.129-.387.773-.515.773-.129A6.664,6.664,0,0,1,71.9,32.8c-2.835,3.093-3.673,6.894-2.191,9.665,1.1,2,2.964,2.9,5.863,2.771,1.675-.064,1.933-.129,2.384-.644Zm-9.343,0A.808.808,0,0,0,69,43.882c0-.966-2.062-4.575-3.544-6.121-.838-.9-.966-1.1-.709-1.289,2-1.482,2.642-2.577,2.642-4.575a4.572,4.572,0,0,0-1.417-3.479C64.622,27,63.4,26.55,60.5,26.678c-2.577.129-3.737.387-4.059,1.031-.193.387-.193.515.258.838a2.041,2.041,0,0,0,.966.387c.644,0,.644-.451-.193,6.765-.644,5.477-.709,5.863-1.16,6.185-.58.451-.515,1.16.129,1.289A22.749,22.749,0,0,0,61.4,42.142c.644-.258.58-.9-.064-1.353-.451-.258-.515-.515-.58-1.675-.064-1.482.064-1.611,1.353-1.031.709.322,1.1.9,1.675,2.835a5.018,5.018,0,0,0,2.835,3.222c1.353.773,1.418.773,2,.451Zm-9.149-7.345c.193.193.387.322.451.258s0-.193-.129-.322a1.156,1.156,0,0,1,0-1.417,4.026,4.026,0,0,1,1.482-.838,4.586,4.586,0,0,0,1.869-1.289,2.374,2.374,0,0,0,.644-2c0-1.417-.451-2.062-1.353-2.062h-.58l-.258,2.513L61.336,34.6l-.773.322a5.459,5.459,0,0,0-1.1.644,1.2,1.2,0,0,0,0,1.675ZM53.6,42.593c0-.387-.258-.644-.9-1.031l-.9-.515-.064-5.8c-.064-5.026,0-5.8.258-5.928.58-.258.966.064.838.644A5.437,5.437,0,0,0,52.7,32.8c.58.709,1.482.064,1.289-.966-.064-.387.129-.838.709-1.675,1.16-1.611,1.417-2.384,1.031-2.706-.387-.387-11.018-.58-11.34-.258-.451.451-.193,1.031.773,2.062,1.224,1.353,1.546,1.869,1.353,2.577-.258,1.031.709,1.482,1.417.709.387-.387.387-.451,0-1.546q-.677-1.933.387-1.74l.451.064V41.047l-.709.387c-.644.322-.838.58-.838.966,0,.451.129.515,1.031.644.58.064,2,.129,3.222.129,2.126-.129,2.126-.129,2.126-.58Zm-18.814.258c.515-.193.387-.9-.193-1.16-.644-.258-.644-.451-.9-6.443L33.5,30.673l.515-.451c1.16-1.16.387-1.611-2.384-1.482-2.513.129-2.9.387-2.062,1.417.515.58.515.773.644,3.866.064,1.8.193,4.188.258,5.283.129,2,.129,2-.387,2.126-.709.193-1.1.838-.773,1.224.193.193.838.322,2.706.322a19.6,19.6,0,0,0,2.771-.129Zm6.508-.193c2.191-1.16,3.544-4.768,3.286-9.085-.193-3.415-.838-4.9-2.062-4.51-1.611.451-3.995,4.639-2.9,4.961.129.064.58-.193,1.031-.451,1.289-.838,1.482-.709,1.417,1.353-.064,2.255-.322,3.222-1.1,3.995-.515.515-.709.58-1.289.451-1.289-.258-2-1.482-2-3.222a6.064,6.064,0,0,1,1.289-3.608A5.735,5.735,0,0,0,40.009,31c.9-1.74,2-2.513,3.35-2.255.322.064-.258-.773-.773-1.1-1.417-.9-3.028-.58-4.575.966a9.792,9.792,0,0,0-2.577,5.155A8.456,8.456,0,0,0,37.625,41.5c1.417,1.482,2.448,1.8,3.673,1.16Zm13.208-6.894c-.064-.644-.129-.966-.451-.966-.193-.064-.193.129-.193.515a3.034,3.034,0,0,0,.193,1.16c.064.193.064,1.482.258.773.064-.451.129-.966.193-1.482Zm39.625-4.9A4.164,4.164,0,0,0,97.225,27c0-1.1-.644-2.062-1.482-2.062A2.2,2.2,0,0,0,94,26.807c0,1.417-1.353,3.286-2.384,3.286a2.228,2.228,0,0,0-.773.193c-.451.193-.515.258-.322.515C90.846,31.317,92.779,31.317,94.132,30.866Z" transform="translate(634.697 185.744)"/><path class="b" d="M22.019,65.739c-.644-.644-.193-1.289,1.611-2.126,1.16-.515,1.675-1.031,4.188-3.93,1.224-1.353,1.224-1.353,2.255-1.353s2,.387,2,.773c0,.064-.515,1.1-1.1,2.191a8.3,8.3,0,0,0-1.031,2.191,3.809,3.809,0,0,0,1.16.258,3.036,3.036,0,0,1,1.417.451c.709.709,0,.9-4.639,1.353-5.09.451-5.541.515-5.863.193Zm49.483,0c-1.353-.322-1.933-.773-3.222-2.32-.709-.838-1.353-1.611-1.417-1.675-.064-.129-.58-.773-1.1-1.417-.515-.709-1.675-2.32-2.577-3.608a21.68,21.68,0,0,0-1.869-2.448c-.258-.064-.387.387-1.16,5.606L59.711,62.9l.451.387a1.96,1.96,0,0,0,.709.387.817.817,0,0,1,.515.451c.258.387.193.515-.064.773-.322.322-.644.322-4.252,0a27.677,27.677,0,0,1-4.317-.58c-.773-.451-.322-1.224.773-1.224s1.675-.322,1.869-1.1c.129-.387.515-2.964.9-5.8.773-5.8.773-5.992-.644-6.508a1.786,1.786,0,0,1-.9-.644c-.129-.322.258-.773.709-.9a69.577,69.577,0,0,1,8.956.515c.709.193,1.224.773,4.317,4.639a42.527,42.527,0,0,0,3.608,4.252c.129-.387,1.1-7.6,1.1-8.054a2.029,2.029,0,0,1,.58-1.1c.58-.58.644-.58,3.673-.709a17.423,17.423,0,0,1,3.608.064,2.759,2.759,0,0,1,1.675,2.191,3.233,3.233,0,0,0,2,2.513c1.869.773,3.286-.129,3.222-2.126-.064-1.1-.322-1.675-1.933-3.995a28.636,28.636,0,0,1-1.8-3.093A5.934,5.934,0,0,1,87.095,35.2,4.412,4.412,0,0,1,92.7,36.551c.709.966,1.224,1.1,2.191.644.451-.193.58-.193.838.064s.258.451-.129,1.74c-.9,3.028-2,5.026-2.706,5.026-.451,0-.451.129-.515-1.869-.064-2.642-1.031-4.124-2.577-4.124-.644,0-.838.064-1.1.58a2.933,2.933,0,0,0-.322,1.289,13.753,13.753,0,0,0,2.126,4.768,10.777,10.777,0,0,1,1.8,4.768c0,3.028-3.028,6.314-5.863,6.314-1.74,0-3.608-1.224-5.283-3.544-.515-.644-.644-.709-1.611-.709a2.506,2.506,0,0,0-2.513,1.482c-.258.387-.515,2.126-.838,5.67a33.107,33.107,0,0,1-.838,5.734A3.539,3.539,0,0,1,71.5,65.739ZM8.746,65.481a8,8,0,0,0,3.995,0c2.771-.515,4.575-1.74,5.541-3.866.451-.966.515-1.482.58-3.737.129-3.479-.129-8.054-.451-8.183C15.7,49.051,15,48.02,16.027,46.345a4.02,4.02,0,0,1,2.32-1.546c.258,0,.322-.387.322-2.513,0-1.417.064-3.673.129-5.026l.129-2.448h.709c1.869.064,2.771.838,3.35,2.706,1.224,3.866-.064,6.121-4.381,7.732-2.448.9-3.157,2.448-1.675,3.415a6.441,6.441,0,0,0,3.8.58,15.6,15.6,0,0,0,5.541-2.964c2.642-2.255,3.866-4.51,4.059-7.41.129-2.062-.322-3.479-1.74-5.734-2.448-3.866-5.992-5.283-11.34-4.639-4.639.58-8.376,2.384-10.824,5.348S3.4,40.353,5.073,42.35a1.551,1.551,0,0,0,1.546.644A9.023,9.023,0,0,0,9,42.543c1.224-.387,1.353-.515,1.74-1.289q.966-1.933-.193-2.513A1.356,1.356,0,0,1,9.712,37.2a4.4,4.4,0,0,1,1.8-1.8c.258,0,.322,1.675.322,11.984,0,7.216-.064,11.984-.193,11.984s-.387-.258-.644-.515c-.322-.451-.451-.838-.451-2.191,0-.9-.064-1.611-.193-1.611a2.027,2.027,0,0,0-.773.451C5.911,58.329,5.4,64,8.746,65.481Zm28.8-1.289.129.515,4.9-.129c6.25-.129,7.023-.193,7.281-.709.193-.387.129-.515-1.611-2a2.706,2.706,0,0,1-.709-1.289c-.58-2.255-1.482-6.379-1.8-8.634l-.387-2.513.451-.322a.8.8,0,0,0,.193-1.289c-.322-.322-12.178-.387-12.757-.064-.644.387-.515.966.451,1.417.58.258.838.58.838.838a8.832,8.832,0,0,1-1.417,2.32A14.505,14.505,0,0,0,31.683,54.4c0,.129.58.258,1.289.387a6.408,6.408,0,0,1,1.611.451c.258.129.644-.258,1.869-1.869,1.224-1.675,1.546-2,1.675-1.675.258.773,1.289,5.412,1.224,5.541a10.673,10.673,0,0,1-2.126-.644c-6.443-2.255-11.533-2.126-14.111.258-1.031.966-.9,1.482.709,2.513l1.353.9.773-.838c1.1-1.16,1.933-1.482,3.995-1.482a12.058,12.058,0,0,1,5.412,1.224c1.611.644,4.51,2.577,4.639,3.028.064.129-.258.322-.709.451q-1.933.58-1.74,1.546Zm36.79-17.848a7.315,7.315,0,0,0,2.9.322c1.611-.064,1.869-.129,2.32-.58.644-.644.709-1.1,1.482-7.6l.58-4.832.773-.515a2.146,2.146,0,0,0,.773-.644c0-.515-.9-.9-2.771-1.1-1.675-.193-2.062-.193-2.32.064s-.258.387.322,1.1c.322.451.58.966.515,1.1-.064.193-.129.515-.193.773s-.193,1.74-.322,3.415c-.258,4.124-.709,5.155-1.933,5.155a3.2,3.2,0,0,1-2.642-1.8c-.966-2-.064-5.283,1.933-7.281,1.546-1.546,1.74-2.642.58-3.35a4.762,4.762,0,0,0-3.415-.064c-1.353.58-2,2.191-1.224,3.028.644.709,1.8.387,2.191-.709.129-.387.773-.515.773-.129a6.664,6.664,0,0,1-1.16,1.546c-2.835,3.093-3.673,6.894-2.191,9.665a4.886,4.886,0,0,0,3.028,2.448Zm-6.25-.644a12.294,12.294,0,0,0,1.482.644.991.991,0,0,0,.966-.966c0-.966-2.062-4.575-3.544-6.121-.838-.9-.966-1.1-.709-1.289,2-1.482,2.642-2.577,2.642-4.575a4.572,4.572,0,0,0-1.417-3.479c-1.353-1.417-2.577-1.869-5.477-1.74-2.577.129-3.737.387-4.059,1.031-.193.387-.193.515.258.838a2.041,2.041,0,0,0,.966.387c.644,0,.644-.451-.193,6.765-.644,5.477-.709,5.863-1.16,6.185-.58.451-.515,1.16.129,1.289a22.749,22.749,0,0,0,4.961-1.031c.644-.258.58-.9-.064-1.353-.451-.258-.515-.515-.58-1.675-.064-1.482.064-1.611,1.353-1.031.709.322,1.1.9,1.675,2.835A4.729,4.729,0,0,0,68.087,45.7Zm-6.83-7.023a1.156,1.156,0,0,1,0-1.417,4.026,4.026,0,0,1,1.482-.838,4.586,4.586,0,0,0,1.869-1.289,2.374,2.374,0,0,0,.644-2c0-1.417-.451-2.062-1.353-2.062h-.58l-.258,2.513L62.8,36.1l-.773.322c-1.031.451-1.482.838-1.482,1.482,0,.515.58,1.353.773,1.16.129-.129.064-.258-.064-.387Zm-11.469,5.8c.58.064,2,.129,3.222.129,2.126,0,2.191,0,2.191-.515,0-.387-.258-.644-.9-1.031l-.9-.515-.064-5.8c-.064-5.026,0-5.8.258-5.928.58-.258.966.064.838.644A5.438,5.438,0,0,0,54.3,34.3c.58.709,1.482.064,1.289-.966-.064-.387.129-.838.709-1.675,1.16-1.611,1.418-2.384,1.031-2.706-.387-.387-11.018-.58-11.34-.258-.451.451-.193,1.031.773,2.062,1.224,1.353,1.546,1.869,1.353,2.577-.258,1.031.709,1.482,1.417.709.387-.387.387-.451,0-1.546q-.677-1.933.387-1.74l.451.064V42.543l-.773.387c-.644.322-.838.58-.838.966,0,.451.064.515,1.031.58ZM30.91,44.154c-.322-.387.129-1.1.773-1.224.515-.129.515-.129.387-2.126-.064-1.1-.193-3.479-.258-5.283-.129-3.093-.193-3.286-.644-3.866-.838-1.031-.515-1.289,2.062-1.417,2.771-.129,3.608.322,2.384,1.482l-.515.451.193,4.575c.258,5.992.258,6.185.9,6.443.58.258.709.966.193,1.16a19.6,19.6,0,0,1-2.771.129c-1.869,0-2.513-.064-2.706-.322Zm9.729.129a9.981,9.981,0,0,1-3.028-3.415,8.877,8.877,0,0,1-.709-5.606c.966-4.832,4.446-7.861,7.087-6.121.515.322,1.1,1.16.773,1.1-1.353-.258-2.448.515-3.35,2.255a5.735,5.735,0,0,1-1.031,1.546,6.518,6.518,0,0,0-1.289,3.608c0,1.74.773,2.964,2,3.222.515.129.773,0,1.289-.451.773-.773,1.031-1.74,1.1-3.995.064-2.062-.129-2.255-1.417-1.353-.451.322-.9.515-1.031.451-1.1-.387,1.353-4.51,2.9-4.961,1.224-.387,1.869,1.1,2.062,4.51.193,3.35-.644,6.636-2.062,8.118a2.744,2.744,0,0,1-3.286,1.1Zm51.416-11.92c-.193-.258-.129-.322.322-.515a2.611,2.611,0,0,1,.773-.193c1.031,0,2.384-1.8,2.384-3.286a2.124,2.124,0,0,1,1.74-1.869c.838,0,1.482.9,1.482,2.062a4.088,4.088,0,0,1-3.093,3.866C94.311,32.814,92.378,32.814,92.056,32.363Z" transform="translate(633.165 184.247)"/><g transform="translate(657.654 193.673)"><path class="c" d="M66.382.838V1.16a10,10,0,0,1-.193,2,4.874,4.874,0,0,1-.709,1.675,4.243,4.243,0,0,1,.773,2,24.025,24.025,0,0,1,.387,3.35v.644l-2.191.064a26.809,26.809,0,0,0-.258-3.222A3.6,3.6,0,0,0,63.74,6.25l-.387.387-.129.129.129,4.188-2.126.064L60.9,1.031,63.031.966l.129,3.866a3.461,3.461,0,0,0,.709-1.546A9.015,9.015,0,0,0,64.127.9L66.382.838m3.995.258,2,.129a10.25,10.25,0,0,1,1.1,3.35,22.319,22.319,0,0,1,.064,4.7L73.4,11.211l-2.191-.129.129-1.611-1.1-.064-.129,1.611-2.191-.129.129-1.933a21.655,21.655,0,0,1,.773-4.7A11.094,11.094,0,0,1,70.376,1.1m1.1,6.508a16.261,16.261,0,0,0,0-2.513,7.69,7.69,0,0,0-.258-1.869,10.175,10.175,0,0,0-.515,1.8,22.027,22.027,0,0,0-.322,2.513l1.1.064M58.843,1.289l.9,9.922-2.191.193-.9-9.922,2.191-.193M75.4,1.611l4.7.644-.258,1.8-1.289-.193L77.4,11.92,75.209,11.6l1.16-8.054L75.08,3.35l.322-1.74m-22.68.322,1.289,7.99,2.255-.387.322,1.869-4.446.709L50.6,2.255l2.126-.322M82.1,2.642l4.381,1.031-.451,1.869-2.255-.515L83.392,6.7l2.126.515-.451,1.8L82.941,8.5l-.58,2.513,2.32.515L84.229,13.4l-4.446-1.031L82.1,2.642m-33.44.064.387,1.8-2.191.515L47.181,6.7l2.126-.451.387,1.8L47.568,8.5l.515,2.513L50.4,10.5l.387,1.869-4.51.966-2-9.729,4.381-.9M90.028,4.832a3.649,3.649,0,0,1,1.16.193,3.074,3.074,0,0,1,1.8,1.224,2.874,2.874,0,0,1-.064,2.191l-.193.58L90.8,8.376l.193-.515a1.438,1.438,0,0,0,.064-.709.581.581,0,0,0-.387-.387c-.064,0-.129-.064-.193-.064a.237.237,0,0,0-.193.064.643.643,0,0,0-.258.322c-.129.322.258,1.031.966,2.126a5.944,5.944,0,0,1,.322.515,3.315,3.315,0,0,1,.58,1.417,3.673,3.673,0,0,1-.193,1.611,3.042,3.042,0,0,1-1.353,1.869,1.891,1.891,0,0,1-1.031.258,4.332,4.332,0,0,1-1.16-.193,3.066,3.066,0,0,1-1.8-1.289,3.046,3.046,0,0,1,.064-2.255l.387-1.16,2.126.709-.322,1.031a1.457,1.457,0,0,0-.129.838c.064.193.129.322.322.387h.129a.387.387,0,0,0,.258-.064.822.822,0,0,0,.322-.451,1.45,1.45,0,0,0,.064-.9,5.366,5.366,0,0,0-.515-1.16,3.817,3.817,0,0,1-.258-.387c-.838-1.417-1.16-2.577-.9-3.415a2.36,2.36,0,0,1,1.224-1.546,2.058,2.058,0,0,1,.9-.193M40.545,4.9a2.058,2.058,0,0,1,.9.193,2.894,2.894,0,0,1,1.224,1.74l1.417,4.381a2.713,2.713,0,0,1,.064,2.126,2.93,2.93,0,0,1-1.675,1.224l-2.835.9L36.55,5.992l2.771-.9A4.378,4.378,0,0,1,40.545,4.9m.58,8.118.322-.129a.8.8,0,0,0,.515-.322c.064-.129,0-.387-.129-.773l-.064-.258L40.545,7.667c-.129-.387-.258-.644-.387-.709-.064,0-.129-.064-.193-.064a.817.817,0,0,0-.387.064l-.322.129,1.869,5.928M95.311,6.7l2,.838c-.451,1.16-.838,2.191-1.1,3.028a7.287,7.287,0,0,0-.387,1.869,7.253,7.253,0,0,0,1.1-1.611,30.811,30.811,0,0,0,1.417-2.9l2,.838-.193.451a14.636,14.636,0,0,1-1.74,3.093,11.681,11.681,0,0,1-2.32,2.384l-1.1,2.577-2-.838,1.1-2.577a12.325,12.325,0,0,1,.129-3.415,16.407,16.407,0,0,1,1.1-3.608V6.7M66.382,0h0L64.127.064a.732.732,0,0,0-.515.193A.732.732,0,0,0,63.1.064h0L60.969.129a.868.868,0,0,0-.838.9l.258,6.7-.644-6.508a.841.841,0,0,0-.838-.773h-.064L56.588.644a.677.677,0,0,0-.58.322,1.089,1.089,0,0,0-.193.644L56.459,8.7h-.322l-1.417.193L53.624,1.8a.83.83,0,0,0-.838-.709h-.129l-2.191.322a1.046,1.046,0,0,0-.58.322.749.749,0,0,0-.129.644l1.16,7.41a.931.931,0,0,0-.451-.129h-.193l-1.482.387L48.6,9.214l1.289-.258a1,1,0,0,0,.515-.387.794.794,0,0,0,.129-.644l-.387-1.8a.892.892,0,0,0-.838-.709,1.156,1.156,0,0,0,.451-.322.794.794,0,0,0,.129-.644L49.5,2.577a1,1,0,0,0-.387-.515,1.2,1.2,0,0,0-.451-.129H48.47l-4.381.9a.868.868,0,0,0-.644,1.031l2.062,9.665a1,1,0,0,0,.387.515,1.2,1.2,0,0,0,.451.129h.193l4.51-.966a1.028,1.028,0,0,0,.58-.451.694.694,0,0,0,.515.129h.129l4.446-.709a.492.492,0,0,0,.322-.129.732.732,0,0,0,.515.193h.064l2.191-.193a.677.677,0,0,0,.58-.322.492.492,0,0,0,.129-.322c.064.064.064.129.129.129a.96.96,0,0,0,.58.258h0l2.126-.064a.732.732,0,0,0,.515-.193.732.732,0,0,0,.515.193h0l2.191-.064a.732.732,0,0,0,.515-.193.769.769,0,0,0,.58.322l2.191.129h.064a1.516,1.516,0,0,0,.515-.129,1.3,1.3,0,0,0,.515.258l2.191.129h.064a.8.8,0,0,0,.838-.773l.129-1.933a19.836,19.836,0,0,0-.129-4.9A9.52,9.52,0,0,0,72.825.9a.929.929,0,0,0-.709-.451l-2-.129h-.064a1.035,1.035,0,0,0-.709.322A10.922,10.922,0,0,0,67.67,4.124a28.463,28.463,0,0,1-.322,3.608c-.064-.387-.129-.709-.193-1.1a13.194,13.194,0,0,0-.58-1.869A9.2,9.2,0,0,0,67.09,3.35,6.419,6.419,0,0,0,67.284,1.1V.773a.817.817,0,0,0-.258-.58A1.243,1.243,0,0,0,66.382,0ZM75.4.773a.838.838,0,0,0-.838.709l-.258,1.8a.779.779,0,0,0,.193.644.677.677,0,0,0,.58.322l.387.064-1.031,7.216a.864.864,0,0,0,.709.966l2.191.322h.129a.732.732,0,0,0,.515-.193.677.677,0,0,0,.322-.58l1.031-7.216.387.064h.129a.732.732,0,0,0,.515-.193.677.677,0,0,0,.322-.58l.258-1.8a.864.864,0,0,0-.709-.966l-4.7-.644A.2.2,0,0,1,75.4.773ZM82.1,1.8a.834.834,0,0,0-.838.644L79.01,12.113a.794.794,0,0,0,.129.644,1,1,0,0,0,.515.387L84.1,14.175h.193a1.2,1.2,0,0,0,.451-.129,1,1,0,0,0,.387-.515l.064-.387c.064.258.129.451.193.644a3.736,3.736,0,0,0,2.32,1.74,3.9,3.9,0,0,0,1.418.258,3.28,3.28,0,0,0,1.417-.322,4.137,4.137,0,0,0,1.74-2.32,4.5,4.5,0,0,0,.258-2,4.276,4.276,0,0,0-.387-1.289l.258.064c.064,0,.193.064.258.064a.808.808,0,0,0,.709-.387,3.233,3.233,0,0,0-.129.773,12.241,12.241,0,0,0-.129,3.415L92.09,16.172a1.1,1.1,0,0,0,0,.644.778.778,0,0,0,.451.451l2,.838a.581.581,0,0,0,.322.064.837.837,0,0,0,.773-.515l1.031-2.384a12.079,12.079,0,0,0,2.32-2.448,16.607,16.607,0,0,0,1.869-3.286l.193-.451a1.1,1.1,0,0,0,0-.644.778.778,0,0,0-.451-.451l-2-.838a.581.581,0,0,0-.322-.064.387.387,0,0,0-.258.064.681.681,0,0,0-.451-.387l-2-.838a.838.838,0,0,0-.644,0,.778.778,0,0,0-.451.451l-.064.193c-.129.387-.322.709-.451,1.1a2.937,2.937,0,0,0-.258-1.74,3.91,3.91,0,0,0-2.32-1.675,3.9,3.9,0,0,0-1.418-.258,2.885,2.885,0,0,0-1.289.258,3.143,3.143,0,0,0-1.74,2.062,4.013,4.013,0,0,0,.387,3.028l-.451-.129c-.064,0-.193-.064-.258-.064a.917.917,0,0,0-.838.58l-.387,1.16v.064a1.017,1.017,0,0,0-.515-.322l-1.482-.322.193-.838,1.289.322h.193a1.2,1.2,0,0,0,.451-.129,1,1,0,0,0,.387-.515l.451-1.8a.959.959,0,0,0-.451-.966h.129a.834.834,0,0,0,.838-.644l.451-1.869a.794.794,0,0,0-.129-.644,1,1,0,0,0-.515-.387L82.3,1.8ZM40.545,4.059h0a3.9,3.9,0,0,0-1.417.258l-2.771.9a.862.862,0,0,0-.515.451.762.762,0,0,0-.064.644l3.093,9.471a.832.832,0,0,0,.838.58.387.387,0,0,0,.258-.064l2.771-.9a3.344,3.344,0,0,0,2.191-1.675,4.051,4.051,0,0,0,0-2.771L43.508,6.572A3.885,3.885,0,0,0,41.9,4.317a3.365,3.365,0,0,0-1.353-.258Z" transform="translate(-35.734 0)"/><g transform="translate(0.816 0.773)"><path class="d" d="M62.215,10.925,60.926,3l-2,.322H58.8l.129.9,1.418,8.892,4.381-.644L64.47,10.6Z" transform="translate(-44.754 -1.84)"/><rect class="d" width="2.191" height="9.922" transform="translate(20.123 0.695) rotate(-5)"/><path class="d" d="M55.185,12.061l-2.32.451L52.286,10l2.191-.451L54.09,7.679,51.9,8.195,51.577,6.52,53.768,6l-.387-1.8L49,5.1l2.062,9.729,4.381-.9.129-.064-.129-.644Z" transform="translate(-41.268 -2.267)"/><path class="d" d="M43.057,9.533a2.66,2.66,0,0,0-1.224-1.74,1.716,1.716,0,0,0-.773-.193,5.208,5.208,0,0,0-1.289.193L37,8.7l3.093,9.471.966-.322,1.8-.58a2.68,2.68,0,0,0,1.675-1.224,2.713,2.713,0,0,0-.064-2.126Zm-.644,5.734a.65.65,0,0,1-.515.322l-.322.129-.515-1.611L39.642,9.855l.322-.129a.871.871,0,0,1,.58,0c.129.064.258.322.387.709l.064.193,1.16,3.608.064.258C42.477,14.881,42.477,15.138,42.412,15.267Z" transform="translate(-37 -3.476)"/><path class="d" d="M108.23,6.42l2.255.515.193-.9.193-.9-.193-.064L106.491,4.1l-2.126,9.278-.064.387.064.064,4.381.966.451-1.8-2.32-.58.58-2.513,2.126.515.387-1.8-2.126-.515Z" transform="translate(-60.938 -2.231)"/><path class="d" d="M118.7,11.244l1.933.644.193-.58c.064-.129.064-.258.129-.387a2.475,2.475,0,0,0,0-1.675c0-.064-.064-.064-.064-.129a2.652,2.652,0,0,0-1.8-1.224,3,3,0,0,0-2.126,0A2.191,2.191,0,0,0,115.74,9.44c-.258.9,0,2,.9,3.415a3.949,3.949,0,0,1,.258.387,2.736,2.736,0,0,1,.515,1.16,2.214,2.214,0,0,1-.064.9.822.822,0,0,1-.322.451.529.529,0,0,1-.451.064.408.408,0,0,1-.322-.387,1.457,1.457,0,0,1,.129-.838l.322-1.031-2.126-.709-.387,1.16v.064a3.165,3.165,0,0,0,0,2.191h0a2.662,2.662,0,0,0,1.8,1.289,2.8,2.8,0,0,0,2.191-.064,3.093,3.093,0,0,0,1.353-1.869,3.772,3.772,0,0,0,.193-1.611,3.315,3.315,0,0,0-.58-1.417c-.064-.129-.193-.258-.322-.515q-1.16-1.643-.966-2.126a.643.643,0,0,1,.258-.322.545.545,0,0,1,.451,0c.193.064.387.193.387.387a.947.947,0,0,1-.064.709Z" transform="translate(-64.388 -3.512)"/><path class="d" d="M129.912,11.724a30.808,30.808,0,0,1-1.417,2.9,8.378,8.378,0,0,1-1.1,1.611,7.287,7.287,0,0,1,.387-1.869c.258-.838.644-1.869,1.1-3.028l-2-.838-.064.193a16.408,16.408,0,0,0-1.1,3.608,12.239,12.239,0,0,0-.129,3.415l-.966,2.32-.129.322.129.064,1.868.773,1.1-2.577a13.6,13.6,0,0,0,2.32-2.384,14.638,14.638,0,0,0,1.74-3.093l.193-.451Z" transform="translate(-68.122 -4.508)"/><path class="d" d="M101.861,3.209l-.129-.064L97.158,2.5,96.9,4.3l1.224.193-1.1,8.054,2.191.322,1.1-8.054,1.289.193.129-1.16Z" transform="translate(-58.306 -1.662)"/><path class="d" d="M90.146,1.793l-1.417-.129-.58-.064A10.311,10.311,0,0,0,86.6,4.757a20.991,20.991,0,0,0-.773,4.7L85.7,11.394l2.191.129.129-1.611.709.064h.387l-.129,1.611,2.191.129.129-1.933a22.221,22.221,0,0,0-.064-4.7A10.97,10.97,0,0,0,90.146,1.793Zm-.9,6.379-.515-.064-.58-.064a22.024,22.024,0,0,1,.322-2.513,5.366,5.366,0,0,1,.258-.966c.064-.322.193-.58.258-.838a13.089,13.089,0,0,1,.258,1.869A17.2,17.2,0,0,1,89.244,8.172Z" transform="translate(-54.322 -1.342)"/><path class="d" d="M80.283,7.257a6.889,6.889,0,0,0-.773-2.062,5.706,5.706,0,0,0,.709-1.675,10,10,0,0,0,.193-2V1.2l-2.191.064a9.014,9.014,0,0,1-.258,2.384,3.461,3.461,0,0,1-.709,1.546l-.129-3.866L75,1.393l.322,9.922,2.126-.064L77.32,7.063l.129-.129a1.094,1.094,0,0,0,.387-.387,3.6,3.6,0,0,1,.451,1.417,26.808,26.808,0,0,1,.258,3.222l2.191-.064v-.644C80.606,9.318,80.477,8.223,80.283,7.257Z" transform="translate(-50.516 -1.2)"/></g></g></g></svg>